# xmcd CD database file generated by Grip 2.95
# 
# Track frame offsets:
#       150
#       10340
#       32006
#       53232
#       63399
#       72405
#       96558
#       112668
#       120802
#       131261
#       143958
#       156276
#       171561
#       182734
#       197420
#       214944
#       228426
#       242633
#       258565
#       274867
# 
# Disc length: 3849 seconds
# 
# Revision: 3
# Processed by: cddbd v1.4PL0 Copyright (c) Steve Scherf et al.
# Submitted via: Grip 2.95
# 
DISCID=210f0714
DTITLE=Louis Armstrong - A portrait of Louis Armstrong
DYEAR=1900
DGENRE=
TTITLE0=What a wonderful world
TTITLE1=Tea for Two
TTITLE2=Jeepers Creepers
TTITLE3=Way down yonder in New Orleans
TTITLE4=Muskrat ramble
TTITLE5=On the sunny side of the street
TTITLE6=I got rhythm
TTITLE7=Stompin' at the Savoy
TTITLE8=Mame
TTITLE9=St. Louis blues
TTITLE10=C'est si bon
TTITLE11=Mack the knife
TTITLE12=hello dolly
TTITLE13=blueberry hill
TTITLE14=cabaret
TTITLE15=Ain't misbehaving
TTITLE16=when the saints go marching in
TTITLE17=I can't give you anything nut love
TTITLE18=stardust
TTITLE19=I'm in the modd for love
EXTD=
EXTT0=
EXTT1=
EXTT2=
EXTT3=
EXTT4=
EXTT5=
EXTT6=
EXTT7=
EXTT8=
EXTT9=
EXTT10=
EXTT11=
EXTT12=
EXTT13=
EXTT14=
EXTT15=
EXTT16=
EXTT17=
EXTT18=
EXTT19=
PLAYORDER=
